<svg id="Слой_1" data-name="Слой 1" xmlns="http://www.w3.org/2000/svg" viewBox="0 0 153.07 40.22"><defs><style>.cls-1{fill:#4e5d6f;}.cls-2{fill:#00abeb;}</style></defs><title>ELKO-logo</title><path class="cls-1" d="M151.79,8.51a3.26,3.26,0,1,1-3.17,3.26A3.21,3.21,0,0,1,151.79,8.51Zm0,6.14a2.79,2.79,0,0,0,2.8-2.88,2.78,2.78,0,1,0-5.56,0A2.78,2.78,0,0,0,151.79,14.65Zm-1-4.68H152a1,1,0,0,1,1,1,.94.94,0,0,1-.69,1h0l.12.21.71,1.37h-.45l-.76-1.5h-.78v1.5h-.39Zm1.15,1.75a.65.65,0,0,0,.69-.71.63.63,0,0,0-.69-.68h-.76v1.39Z" transform="translate(-1.93 -8.51)"/><rect class="cls-1" x="72.75" y="0.6" width="7.89" height="39.08"/><polygon class="cls-2" points="92.91 20.14 109.79 0.6 100.11 0.6 82.99 20.14 100.11 39.68 109.8 39.68 92.91 20.14"/><polygon class="cls-1" points="47.24 32.49 47.24 0.6 39.35 0.6 39.35 39.68 67.38 39.68 67.38 32.49 47.24 32.49"/><path class="cls-1" d="M130.11,8.57c-11.42,0-20,8.66-20,20.14a20.09,20.09,0,0,0,40.17,0A19.7,19.7,0,0,0,130.11,8.57Zm0,32.47a12.08,12.08,0,0,1-12.35-12.35,12.4,12.4,0,1,1,24.79,0A12.12,12.12,0,0,1,130.12,41Z" transform="translate(-1.93 -8.51)"/><rect class="cls-1" x="11.61" y="15.93" width="15.28" height="7.24"/><polygon class="cls-1" points="31.98 0.6 0 0.6 0 39.68 31.98 39.68 31.98 32.44 7.67 32.44 7.67 7.84 31.98 7.84 31.98 0.6"/></svg>