<?xml version="1.0" encoding="UTF-8"?>
<!DOCTYPE svg PUBLIC "-//W3C//DTD SVG 1.1//EN" "http://www.w3.org/Graphics/SVG/1.1/DTD/svg11.dtd">
<!-- Creator: CorelDRAW X8 -->
<svg xmlns="http://www.w3.org/2000/svg" xml:space="preserve" width="243.841mm" height="54.6353mm" version="1.1" style="shape-rendering:geometricPrecision; text-rendering:geometricPrecision; image-rendering:optimizeQuality; fill-rule:evenodd; clip-rule:evenodd" viewBox="0 0 24481 5485" xmlns:xlink="http://www.w3.org/1999/xlink">
 <defs>
  <style type="text/css">
   <![CDATA[
    .fil7 {fill:none}
    .fil3 {fill:#4D4D4D}
    .fil2 {fill:#666666}
    .fil6 {fill:#FF3300}
    .fil5 {fill:#FF4400}
    .fil4 {fill:#FF5E00}
    .fil8 {fill:white}
    .fil1 {fill:#4D4D4D;fill-rule:nonzero}
    .fil0 {fill:url(#id0);fill-rule:nonzero}
   ]]>
  </style>
  <linearGradient id="id0" gradientUnits="userSpaceOnUse" x1="19217.9" y1="3291.4" x2="22783.3" y2="4387.15">
   <stop offset="0" style="stop-opacity:1; stop-color:#FF5117"/>
   <stop offset="1" style="stop-opacity:1; stop-color:#FF5E00"/>
  </linearGradient>
 </defs>
 <g id="Слой_x0020_1">
  <metadata id="CorelCorpID_0Corel-Layer"/>
  <g id="_895141113072">
   <path class="fil0" d="M22953 3839l0 -654 1312 0 216 -219 0 -1096 -216 -223 -1750 0 0 2192 438 0zm0 -1093l0 -660 1093 0 0 660 -1093 0zm-2280 1093l1093 -1462 0 1462 435 0 0 -2192 -435 0 -1093 1460 0 -1460 -438 0 0 2192 438 0zm-2714 0l0 -1478 585 843 366 0 573 -843 0 1478 439 0 0 -2192 -423 0 -776 1062 -764 -1062 -439 0 0 2192 439 0z"/>
   <path class="fil1" d="M13294 3839l0 -654 1312 0 216 -219 0 -1096 -216 -223 -1751 0 0 2192 439 0zm2332 -438l0 -1315 1093 0 0 1315 -1093 0zm1312 438l216 -216 0 -1753 -216 -223 -1534 0 -216 223 0 1753 216 216 1534 0zm-3644 -1093l0 -660 1093 0 0 660 -1093 0zm-2248 1093l0 -873 565 0 527 873 436 0 -644 -1093 644 -1099 -436 0 -527 880 -565 0 0 -880 -439 0 0 2192 439 0zm-2280 0l0 -654 1093 0 0 654 435 0 0 -2192 -1312 0 -654 661 0 1531 438 0zm0 -1093l0 -219 435 -441 658 0 0 660 -1093 0zm-2684 1093l0 -1478 586 843 186 287 180 -287 573 -843 0 1478 439 0 0 -2192 -423 0 -776 1062 -765 -1062 -438 0 0 2192 438 0z"/>
   <g>
    <polygon class="fil2" points="2375,4388 2850,4114 2850,3565 2375,3840 "/>
    <polygon class="fil3" points="2375,4388 1900,4114 1900,3565 2375,3840 "/>
    <polygon class="fil4" points="3325,3840 3800,3565 3800,3017 3800,2468 3800,1920 3325,2194 2850,2468 2375,2743 2375,3291 2850,3017 3325,2743 3325,3291 "/>
    <polygon class="fil5" points="2375,3291 1900,3017 1425,2743 1425,3291 1425,3840 950,3565 950,3017 950,2468 950,1920 1425,2194 1900,2468 2375,2743 "/>
    <polygon class="fil6" points="4750,1371 4275,1646 3800,1371 3325,1097 2850,823 2375,549 1900,823 1425,1097 950,1371 475,1646 0,1371 475,1097 950,823 1425,549 1900,274 2375,0 2850,274 3325,549 3800,823 4275,1097 "/>
    <polygon class="fil4" points="4750,3017 4750,2468 4750,1920 4750,1371 4275,1646 4275,2194 4275,2743 4275,3291 4275,3840 3800,4114 3325,4388 3325,4388 2850,4662 2375,4937 2375,5485 2850,5211 3325,4937 3800,4662 4275,4388 4750,4114 4750,3565 "/>
    <polygon class="fil5" points="0,3017 0,2468 0,1920 0,1371 475,1646 475,2194 475,2743 475,3291 475,3840 950,4114 1425,4388 1425,4388 1900,4662 2375,4937 2375,5485 1900,5211 1425,4937 950,4662 475,4388 0,4114 0,3565 "/>
    <polygon class="fil7" points="3326,4386 2852,4662 2376,4390 2850,4114 "/>
    <path class="fil8" d="M475 3840l1 -1 472 275 3 -2 474 276 2 -1 473 275 2 -1 473 276 476 -273 476 -272 0 -4 474 -276 4 2 471 -275 1 1 0 -2 2 0 -2 -1 0 -546 0 -502 0 -46 0 -549 0 -548 -532 -306 -420 -243 0 0 -475 -274 -475 -274 -475 274 0 0 -475 274 0 0 -475 274 0 0 -475 275 0 548 0 549 0 548 0 546 -1 1 1 0 0 2zm3329 -273l-2 -2 -473 277 -4 -2 -474 276 1 0 -475 272 -2 1 -473 -275 -2 1 -2 -1 2 -547 2 -2 0 -1 473 276 475 -272 2 546 474 -276 -3 -2 2 -1093 -477 274 0 1 -473 273 -473 -273 0 -1 -2 0 0 0 0 0 0 0 -475 -274 0 532 0 16 0 0 2 545 -3 2 3 2 -3 2 -474 -277 -2 2 2 -2 0 -548 0 -549 0 -548 0 0 474 -274 476 -275 475 -274 475 274 0 0 475 275 0 0 -475 274 -475 274 -475 -274 -475 -274 -475 274 475 274 475 274 475 275 475 -275 475 -274 475 -274 0 0 2 1 0 547 0 47 0 502 0 548 2 2zm-956 -3l0 1 0 -1zm-472 -272l-1 -1 1 1z"/>
    <polygon class="fil6" points="2850,1920 3325,1646 2850,1371 "/>
    <polygon class="fil3" points="2375,2194 1424,1646 1900,1371 2375,1097 2850,1371 3325,1646 "/>
   </g>
  </g>
 </g>
</svg>